<svg width="200px" height="200px" viewBox="0 0 50 50" version="1.1" xmlns="http://www.w3.org/2000/svg" xmlns:xlink="http://www.w3.org/1999/xlink">
  <g id="logo-v02">
    <path fill="#fff" d="M36.1465266,50 L13.8534734,50 L0,32.0068423 L4.94243291,9.87916727 L24.9902977,0 L45.0597232,9.73940894 L50,32.033047 L36.1465266,50 Z M16.0706329,45.632552 L33.9308045,45.632552 L45.0992511,31.0329014 L41.1112389,12.9807832 L25.0061089,5.1368467 L8.8901985,13.0630368 L4.90362364,31.020527 L16.0706329,45.632552 Z"></path>
    <polygon fill="#fff" points="23.1294147 20.5 26.8720234 20.5 28.4970562 30.187047 28.5416368 30.187047 29.6547124 20.5 33.6633663 20.5 30.9468292 34.5 26.4039277 34.5 25.0226498 25.0894527 24.9780692 25.0894527 23.5975104 34.5 19.0538899 34.5 16.3366337 20.5 20.3452876 20.5 21.5921048 30.187047 21.6366854 30.187047"></polygon>
  </g>
</svg>